<?xml version="1.0" encoding="UTF-8"?>
<svg width="16" height="16" viewBox="0 0 16 16" fill="none" xmlns="http://www.w3.org/2000/svg">
  <rect width="16" height="16" rx="3" fill="#2563EB"/>
  <path d="M8 3C8.55228 3 9 3.44772 9 4V7.5858L11.7071 4.87868C12.0976 4.48815 12.7308 4.48815 13.1213 4.87868C13.5118 5.2692 13.5118 5.90237 13.1213 6.29289L9.41421 10L13.1213 13.7071C13.5118 14.0976 13.5118 14.7308 13.1213 15.1213C12.7308 15.5118 12.0976 15.5118 11.7071 15.1213L9 12.4142V12.5C9 13.0523 8.55228 13.5 8 13.5C7.44772 13.5 7 13.0523 7 12.5V12.4142L4.29289 15.1213C3.90237 15.5118 3.2692 15.5118 2.87868 15.1213C2.48815 14.7308 2.48815 14.0976 2.87868 13.7071L6.58579 10L2.87868 6.29289C2.48815 5.90237 2.48815 5.2692 2.87868 4.87868C3.2692 4.48815 3.90237 4.48815 4.29289 4.87868L7 7.5858V4C7 3.44772 7.44772 3 8 3Z" fill="white"/>
</svg>