<svg width="48" height="48" viewBox="0 0 48 48" fill="none" xmlns="http://www.w3.org/2000/svg">
  <rect width="48" height="48" rx="9" fill="#2563EB"/>
  <path d="M24 9C26.2091 9 28 10.7909 28 13V22.7574L35.1213 15.636C36.2929 14.4644 38.1716 14.4644 39.3431 15.636C40.5147 16.8076 40.5147 18.6863 39.3431 19.8579L28.2426 30.9584L39.3431 42.0589C40.5147 43.2305 40.5147 45.1092 39.3431 46.2807C38.1716 47.4523 36.2929 47.4523 35.1213 46.2807L28 39.1594V39.5C28 41.7091 26.2091 43.5 24 43.5C21.7909 43.5 20 41.7091 20 39.5V39.1594L12.8787 46.2807C11.7071 47.4523 9.82843 47.4523 8.65685 46.2807C7.48528 45.1092 7.48528 43.2305 8.65685 42.0589L19.7574 30.9584L8.65685 19.8579C7.48528 18.6863 7.48528 16.8076 8.65685 15.636C9.82843 14.4644 11.7071 14.4644 12.8787 15.636L20 22.7574V13C20 10.7909 21.7909 9 24 9Z" fill="white"/>
</svg>
