<svg width="128" height="128" viewBox="0 0 128 128" fill="none" xmlns="http://www.w3.org/2000/svg">
  <rect width="128" height="128" rx="24" fill="#2563EB"/>
  <path d="M64 24C69.5228 24 74 28.4772 74 34V60.6863L93.6569 41.0294C96.7806 37.9057 101.8 37.9057 104.923 41.0294C108.047 44.1531 108.047 49.1725 104.923 52.2962L75.3137 81.9056L104.923 111.515C108.047 114.639 108.047 119.658 104.923 122.782C101.8 125.906 96.7806 125.906 93.6569 122.782L74 103.125V104C74 109.523 69.5228 114 64 114C58.4772 114 54 109.523 54 104V103.125L34.3431 122.782C31.2194 125.906 26.2 125.906 23.0762 122.782C19.9526 119.658 19.9526 114.639 23.0762 111.515L52.6863 81.9056L23.0762 52.2962C19.9526 49.1725 19.9526 44.1531 23.0762 41.0294C26.2 37.9057 31.2194 37.9057 34.3431 41.0294L54 60.6863V34C54 28.4772 58.4772 24 64 24Z" fill="white"/>
</svg>
